<?xml version="1.0" encoding="utf-8"?>
<!-- Generator: Adobe Illustrator 27.0.1, SVG Export Plug-In . SVG Version: 6.00 Build 0)  -->
<svg version="1.1" id="Vrstva_1" xmlns="http://www.w3.org/2000/svg" xmlns:xlink="http://www.w3.org/1999/xlink" x="0px" y="0px"
	 viewBox="0 0 597.97 367.33" style="enable-background:new 0 0 597.97 367.33;" xml:space="preserve">
<style type="text/css">
	.st0{filter:url(#AI_StínAúkos_1);}
	.st1{fill:#FFFFFF;}
</style>
<filter  height="140%" id="AI_StínAúkos_1" width="140%" x="-20%" y="-20%">
	<feGaussianBlur  in="SourceAlpha" result="blur" stdDeviation="4"></feGaussianBlur>
	<feOffset  dx="4" dy="4" in="blur" result="offsetBlur"></feOffset>
	
		<feSpecularLighting  in="blur" result="specOut" specularConstant="1" specularExponent="10" style="lighting-color:white" surfaceScale="5">
		<fePointLight  x="-5000" y="-10000" z="-20000"></fePointLight>
	</feSpecularLighting>
	<feComposite  in="specOut" in2="SourceAlpha" operator="in" result="specOut"></feComposite>
	<feComposite  in="SourceGraphic" in2="specOut" k1="0" k2="1" k3="1" k4="0" operator="arithmetic" result="litPaint">
		</feComposite>
	<feMerge>
		<feMergeNode  in="offsetBlur"></feMergeNode>
		<feMergeNode  in="litPaint"></feMergeNode>
	</feMerge>
</filter>
<g class="st0">
	<g>
		<path class="st1" d="M380.6,312.62c5.99,15.43,0,33.75-13.7,40.5c-3.42,1.93-7.28,2.89-11.13,2.89
			c-10.27,0-20.12-6.75-24.82-17.84l-95.02-235.75c-7.28-17.84-23.54-28.93-40.66-28.93c-17.55,0-33.38,11.09-40.66,28.93
			L59.17,338.18c-5.99,15.43-22.26,22.18-35.95,14.94c-13.7-6.75-19.69-25.07-13.27-40.5l95.02-235.26
			c16.26-39.53,51.36-65.57,90.31-65.57c38.52,0,74.04,26.03,89.88,65.57L380.6,312.62z M244.07,245.13
			c0,30.37-21.83,54.96-48.79,54.96s-48.79-24.59-48.79-54.96c0-30.37,21.83-54.96,48.79-54.96S244.07,214.76,244.07,245.13z"/>
	</g>
	<path class="st1" d="M565.34,298.91l-83.84-61.36l24.86-1.12c23.32-3.06,37.98-14.05,47.98-24.95
		c19.51-21.26,29.15-50.24,29.15-81.04c0-30.81-10.27-59.24-29.15-81.04c-18.89-21.33-43.53-37.61-70.22-37.61H332.27
		c-14.37,0-25.87,14-25.87,30.59c0,16.59,11.5,29.86,25.87,29.86h151.86c25.87,0,47.22,28.35,47.22,58.2
		c0,29.86-21.35,54.03-47.22,54.03l-85.8-0.86c-14.37,0-25.87,13.74-25.87,30.33c0,9.64,3.89,18.16,9.97,23.61l151.82,109.57
		c16.61,11.87,35.78,12.99,46.29-2.65C589.47,331.2,584.19,311.66,565.34,298.91z"/>
</g>
</svg>
