<?xml version="1.0" encoding="UTF-8"?><svg id="Vrstva_1" xmlns="http://www.w3.org/2000/svg" viewBox="0 0 870.24 870.24"><defs><style>.cls-1{fill:#fff;}.cls-2{fill:#1d1d1b;}</style></defs><rect class="cls-2" width="870.24" height="870.24" rx="186.38" ry="186.38"/><g><path class="cls-1" d="m274.3,626.56c2.67,0,4.98.75,6.94,2.26,1.95,1.51,2.93,3.29,2.93,5.36v41.19c0,2.46-.26,4.82-.77,7.08-.52,2.26-1.23,4.46-2.16,6.61-2.06,4.45-4.99,8.33-8.78,11.66-4.21,3.57-9.17,6.27-14.87,8.1-5.7,1.83-12.05,2.74-19.03,2.74h-5.55c-14.28,0-25.64-3.61-34.06-10.83-.31-.32-.62-.6-.93-.83s-.62-.51-.92-.83c-.31.32-.62.6-.93.83s-.62.52-.92.83c-4.11,3.57-9.04,6.27-14.8,8.1-5.76,1.83-12.12,2.74-19.11,2.74h-5.55c-7.09,0-13.48-.91-19.19-2.74-5.7-1.82-10.61-4.52-14.72-8.1-3.91-3.25-6.88-7.14-8.94-11.66-1.85-4.28-2.77-8.85-2.77-13.69v-41.19c0-2.06.95-3.85,2.85-5.36,1.9-1.51,4.24-2.26,7.01-2.26s4.96.75,6.86,2.26c1.9,1.51,2.85,3.29,2.85,5.36v41.19c0,1.27.23,3.08.69,5.42.46,2.34,1.57,4.68,3.31,7.02,1.75,2.34,4.34,4.37,7.78,6.07,3.44,1.71,8.19,2.56,14.26,2.56h5.55c6.06,0,10.81-.85,14.26-2.56,3.44-1.71,6.03-3.73,7.78-6.07,1.75-2.34,2.85-4.68,3.31-7.02.46-2.34.69-4.15.69-5.42v-41.19c0-2.06.95-3.85,2.85-5.36,1.9-1.51,4.19-2.26,6.86-2.26s4.98.75,6.94,2.26c1.95,1.51,2.93,3.29,2.93,5.36v41.19c0,1.27.23,3.08.69,5.42.46,2.34,1.57,4.68,3.31,7.02,1.75,2.34,4.34,4.37,7.78,6.07,3.44,1.71,8.19,2.56,14.26,2.56h5.55c5.96,0,10.69-.85,14.18-2.56,3.49-1.71,6.09-3.73,7.78-6.07,1.69-2.34,2.77-4.68,3.24-7.02.46-2.34.69-4.15.69-5.42v-41.19c0-2.06.98-3.85,2.93-5.36,1.95-1.51,4.26-2.26,6.94-2.26Z"/><path class="cls-1" d="m415.86,628.7c4.47,1.43,8.45,3.49,11.94,6.19,3.49,2.7,6.14,5.77,7.94,9.23,1.8,3.45,2.7,7.08,2.7,10.89v48.92c0,2.14-.95,3.95-2.85,5.42-1.9,1.47-4.19,2.2-6.86,2.2s-4.99-.73-6.94-2.2c-1.95-1.47-2.93-3.27-2.93-5.42v-27.26h-63.65c-3.6,0-6.63.95-9.09,2.86-2.47,1.9-3.7,4.25-3.7,7.02s1.23,5.12,3.7,7.02c2.47,1.9,5.49,2.86,9.09,2.86h25.43c2.67,0,4.98.74,6.94,2.2,1.95,1.47,2.93,3.23,2.93,5.3s-.98,3.95-2.93,5.42c-1.95,1.47-4.26,2.2-6.94,2.2h-25.43c-4.52,0-8.73-.66-12.64-1.96-3.91-1.31-7.35-3.09-10.33-5.36-2.98-2.26-5.32-4.9-7.01-7.92-1.7-3.01-2.54-6.27-2.54-9.76s.85-6.65,2.54-9.7c1.7-3.05,4.03-5.71,7.01-7.98,2.98-2.26,6.42-4.05,10.33-5.36,3.9-1.31,8.12-1.96,12.64-1.96h63.65v-6.55c0-1.82-.46-3.55-1.39-5.18-.92-1.62-2.16-3.03-3.7-4.22-1.54-1.19-3.34-2.14-5.39-2.86-2.06-.71-4.26-1.07-6.63-1.07h-61.03c-2.67,0-4.98-.73-6.94-2.2-1.95-1.47-2.93-3.23-2.93-5.3s.98-3.85,2.93-5.36c1.95-1.51,4.26-2.26,6.94-2.26h61.03c4.93,0,9.63.71,14.1,2.14Z"/><path class="cls-1" d="m603.49,627.27c2.47.87,4.18,2.28,5.16,4.22.98,1.95.9,3.87-.23,5.77l-34.37,58.21c-2.98,4.92-7.37,8.83-13.18,11.72-5.81,2.9-12.25,4.35-19.34,4.35s-13.38-1.45-19.19-4.35c-5.81-2.9-10.2-6.8-13.18-11.72l-34.37-58.21c-1.13-1.9-1.21-3.83-.23-5.77.97-1.94,2.7-3.35,5.16-4.22,2.47-.87,4.96-.93,7.47-.18,2.52.76,4.34,2.08,5.47,3.99l34.37,58.09c1.33,2.22,3.31,3.99,5.93,5.3,2.62,1.31,5.47,1.96,8.55,1.96s6.09-.65,8.71-1.96c2.62-1.31,4.6-3.07,5.93-5.3l34.37-58.09c1.13-1.9,2.95-3.23,5.47-3.99,2.52-.75,5.01-.69,7.47.18Z"/><path class="cls-1" d="m661.28,676.67v5.59c0,1.98.49,3.83,1.46,5.54.97,1.71,2.29,3.2,3.93,4.46,1.64,1.27,3.6,2.28,5.86,3.04,2.26.75,4.62,1.13,7.09,1.13h59.95c2.67,0,4.96.74,6.86,2.2,1.9,1.47,2.85,3.23,2.85,5.3s-.95,3.95-2.85,5.42c-1.9,1.47-4.19,2.2-6.86,2.2h-59.95c-5.14,0-9.99-.73-14.56-2.2-4.57-1.47-8.66-3.59-12.25-6.37-3.6-2.78-6.34-5.93-8.25-9.46-1.9-3.53-2.85-7.28-2.85-11.25v-26.19c0-3.97.98-7.74,2.93-11.31,1.95-3.57,4.72-6.74,8.32-9.52,3.6-2.78,7.71-4.92,12.33-6.43,4.62-1.51,9.5-2.26,14.64-2.26h45.16c4.42,0,8.6.65,12.56,1.96,3.95,1.31,7.4,3.12,10.33,5.42,2.93,2.3,5.24,4.98,6.94,8.04,1.7,3.06,2.54,6.29,2.54,9.7s-.85,6.65-2.54,9.7c-1.7,3.06-4.01,5.71-6.94,7.97-2.93,2.26-6.37,4.05-10.33,5.36-3.96,1.31-8.14,1.96-12.56,1.96h-63.8Zm-2.59-15.12h63.51c3.58,0,6.6-.97,9.05-2.92s3.68-4.26,3.68-6.96-1.23-5.14-3.68-7.08c-2.45-1.94-5.47-2.92-9.05-2.92h-44.94c-2.56,0-4.96.38-7.21,1.13-2.25.76-4.22,1.79-5.91,3.09-1.69,1.31-3.02,2.84-3.99,4.58-.97,1.75-1.46,3.61-1.46,5.59v5.48Z"/></g><g><path class="cls-1" d="m528.04,495c6.68,17.2,0,37.62-15.27,45.15-3.82,2.15-8.11,3.22-12.41,3.22-11.45,0-22.43-7.52-27.67-19.88l-105.92-262.81c-8.11-19.88-26.24-32.25-45.33-32.25s-37.22,12.36-45.33,32.25l-106.4,262.81c-6.68,17.2-24.81,24.72-40.08,16.66-15.27-7.52-21.95-27.95-14.79-45.15l105.92-262.27c18.13-44.07,57.26-73.09,100.67-73.09s82.54,29.02,100.2,73.09l106.4,262.27Zm-152.2-75.24c0,33.86-24.33,61.27-54.39,61.27s-54.39-27.41-54.39-61.27,24.33-61.27,54.39-61.27,54.39,27.41,54.39,61.27Z"/><path class="cls-1" d="m733.99,479.71l-93.46-68.4,27.72-1.25c25.99-3.41,42.34-15.66,53.49-27.81,21.75-23.7,32.5-56,32.5-90.34s-11.44-66.04-32.5-90.34c-21.06-23.77-48.52-41.93-78.28-41.93h-169.29c-16.02,0-28.84,15.61-28.84,34.1s12.82,33.28,28.84,33.28h169.29c28.84,0,52.64,31.6,52.64,64.88s-23.8,60.23-52.64,60.23l-95.65-.95c-16.02,0-28.84,15.32-28.84,33.81,0,10.75,4.34,20.25,11.12,26.32l169.25,122.15c18.51,13.24,39.88,14.48,51.6-2.95,9.95-14.8,4.06-36.58-16.95-50.79Z"/></g></svg>