<?xml version="1.0" encoding="utf-8"?>
<!-- Generator: Adobe Illustrator 27.0.1, SVG Export Plug-In . SVG Version: 6.00 Build 0)  -->
<svg version="1.1" id="Vrstva_1" xmlns="http://www.w3.org/2000/svg" xmlns:xlink="http://www.w3.org/1999/xlink" x="0px" y="0px"
	 viewBox="0 0 870.24 870.24" style="enable-background:new 0 0 870.24 870.24;" xml:space="preserve">
<style type="text/css">
	.st0{fill:url(#SVGID_1_);}
	.st1{filter:url(#AI_StínAúkos_1);}
	.st2{fill:#FFFFFF;}
</style>
<filter  height="140%" id="AI_StínAúkos_1" width="140%" x="-20%" y="-20%">
	<feGaussianBlur  in="SourceAlpha" result="blur" stdDeviation="4"></feGaussianBlur>
	<feOffset  dx="4" dy="4" in="blur" result="offsetBlur"></feOffset>
	
		<feSpecularLighting  in="blur" result="specOut" specularConstant="1" specularExponent="10" style="lighting-color:white" surfaceScale="5">
		<fePointLight  x="-5000" y="-10000" z="-20000"></fePointLight>
	</feSpecularLighting>
	<feComposite  in="specOut" in2="SourceAlpha" operator="in" result="specOut"></feComposite>
	<feComposite  in="SourceGraphic" in2="specOut" k1="0" k2="1" k3="1" k4="0" operator="arithmetic" result="litPaint">
		</feComposite>
	<feMerge>
		<feMergeNode  in="offsetBlur"></feMergeNode>
		<feMergeNode  in="litPaint"></feMergeNode>
	</feMerge>
</filter>
<linearGradient id="SVGID_1_" gradientUnits="userSpaceOnUse" x1="1.0689" y1="435.1064" x2="871.3051" y2="435.1064">
	<stop  offset="0" style="stop-color:#7E217C"/>
	<stop  offset="0.9995" style="stop-color:#3E358B"/>
</linearGradient>
<rect x="1.07" y="-0.01" class="st0" width="870.24" height="870.24"/>
<g class="st1">
	<path class="st2" d="M275.61,626.55c2.67,0,4.98,0.75,6.94,2.26c1.95,1.51,2.93,3.29,2.93,5.36v41.19c0,2.46-0.26,4.82-0.77,7.08
		c-0.52,2.26-1.23,4.46-2.16,6.61c-2.06,4.45-4.99,8.33-8.78,11.66c-4.21,3.57-9.17,6.27-14.87,8.1c-5.7,1.83-12.05,2.74-19.03,2.74
		h-5.55c-14.28,0-25.64-3.61-34.06-10.83c-0.31-0.32-0.62-0.6-0.93-0.83c-0.31-0.24-0.62-0.51-0.92-0.83
		c-0.31,0.32-0.62,0.6-0.93,0.83c-0.31,0.24-0.62,0.52-0.92,0.83c-4.11,3.57-9.04,6.27-14.8,8.1c-5.76,1.83-12.12,2.74-19.11,2.74
		h-5.55c-7.09,0-13.48-0.91-19.19-2.74c-5.7-1.82-10.61-4.52-14.72-8.1c-3.91-3.25-6.88-7.14-8.94-11.66
		c-1.85-4.28-2.77-8.85-2.77-13.69v-41.19c0-2.06,0.95-3.85,2.85-5.36c1.9-1.51,4.24-2.26,7.01-2.26c2.67,0,4.96,0.75,6.86,2.26
		c1.9,1.51,2.85,3.29,2.85,5.36v41.19c0,1.27,0.23,3.08,0.69,5.42c0.46,2.34,1.57,4.68,3.31,7.02c1.75,2.34,4.34,4.37,7.78,6.07
		c3.44,1.71,8.19,2.56,14.26,2.56h5.55c6.06,0,10.81-0.85,14.26-2.56c3.44-1.71,6.03-3.73,7.78-6.07c1.75-2.34,2.85-4.68,3.31-7.02
		c0.46-2.34,0.69-4.15,0.69-5.42v-41.19c0-2.06,0.95-3.85,2.85-5.36c1.9-1.51,4.19-2.26,6.86-2.26c2.67,0,4.98,0.75,6.94,2.26
		c1.95,1.51,2.93,3.29,2.93,5.36v41.19c0,1.27,0.23,3.08,0.69,5.42c0.46,2.34,1.57,4.68,3.31,7.02c1.75,2.34,4.34,4.37,7.78,6.07
		c3.44,1.71,8.19,2.56,14.26,2.56h5.55c5.96,0,10.69-0.85,14.18-2.56c3.49-1.71,6.09-3.73,7.78-6.07c1.69-2.34,2.77-4.68,3.24-7.02
		c0.46-2.34,0.69-4.15,0.69-5.42v-41.19c0-2.06,0.98-3.85,2.93-5.36C270.62,627.3,272.94,626.55,275.61,626.55z"/>
	<path class="st2" d="M417.16,628.69c4.47,1.43,8.45,3.49,11.94,6.19c3.49,2.7,6.14,5.77,7.94,9.23c1.8,3.45,2.7,7.08,2.7,10.89
		v48.92c0,2.14-0.95,3.95-2.85,5.42c-1.9,1.47-4.19,2.2-6.86,2.2c-2.67,0-4.99-0.73-6.94-2.2c-1.95-1.47-2.93-3.27-2.93-5.42v-27.26
		h-63.65c-3.6,0-6.63,0.95-9.09,2.86c-2.47,1.9-3.7,4.25-3.7,7.02c0,2.78,1.23,5.12,3.7,7.02c2.47,1.9,5.49,2.86,9.09,2.86h25.43
		c2.67,0,4.98,0.74,6.94,2.2c1.95,1.47,2.93,3.23,2.93,5.3c0,2.14-0.98,3.95-2.93,5.42c-1.95,1.47-4.26,2.2-6.94,2.2h-25.43
		c-4.52,0-8.73-0.66-12.64-1.96c-3.91-1.31-7.35-3.09-10.33-5.36c-2.98-2.26-5.32-4.9-7.01-7.92c-1.7-3.01-2.54-6.27-2.54-9.76
		c0-3.41,0.85-6.65,2.54-9.7c1.7-3.05,4.03-5.71,7.01-7.98c2.98-2.26,6.42-4.05,10.33-5.36c3.9-1.31,8.12-1.96,12.64-1.96h63.65V655
		c0-1.82-0.46-3.55-1.39-5.18c-0.92-1.62-2.16-3.03-3.7-4.22c-1.54-1.19-3.34-2.14-5.39-2.86c-2.06-0.71-4.26-1.07-6.63-1.07h-61.03
		c-2.67,0-4.98-0.73-6.94-2.2c-1.95-1.47-2.93-3.23-2.93-5.3c0-2.06,0.98-3.85,2.93-5.36c1.95-1.51,4.26-2.26,6.94-2.26h61.03
		C407.99,626.55,412.7,627.26,417.16,628.69z"/>
	<path class="st2" d="M604.8,627.26c2.47,0.87,4.18,2.28,5.16,4.22c0.98,1.95,0.9,3.87-0.23,5.77l-34.37,58.21
		c-2.98,4.92-7.37,8.83-13.18,11.72c-5.81,2.9-12.25,4.35-19.34,4.35c-6.99,0-13.38-1.45-19.19-4.35c-5.81-2.9-10.2-6.8-13.18-11.72
		l-34.37-58.21c-1.13-1.9-1.21-3.83-0.23-5.77c0.97-1.94,2.7-3.35,5.16-4.22c2.47-0.87,4.96-0.93,7.47-0.18
		c2.52,0.76,4.34,2.08,5.47,3.99l34.37,58.09c1.33,2.22,3.31,3.99,5.93,5.3c2.62,1.31,5.47,1.96,8.55,1.96
		c3.18,0,6.09-0.65,8.71-1.96c2.62-1.31,4.6-3.07,5.93-5.3l34.37-58.09c1.13-1.9,2.95-3.23,5.47-3.99
		C599.84,626.33,602.33,626.39,604.8,627.26z"/>
	<path class="st2" d="M662.59,676.66v5.59c0,1.98,0.49,3.83,1.46,5.54c0.97,1.71,2.29,3.2,3.93,4.46c1.64,1.27,3.6,2.28,5.86,3.04
		c2.26,0.75,4.62,1.13,7.09,1.13h59.95c2.67,0,4.96,0.74,6.86,2.2c1.9,1.47,2.85,3.23,2.85,5.3c0,2.14-0.95,3.95-2.85,5.42
		c-1.9,1.47-4.19,2.2-6.86,2.2h-59.95c-5.14,0-9.99-0.73-14.56-2.2c-4.57-1.47-8.66-3.59-12.25-6.37c-3.6-2.78-6.34-5.93-8.25-9.46
		c-1.9-3.53-2.85-7.28-2.85-11.25v-26.19c0-3.97,0.98-7.74,2.93-11.31c1.95-3.57,4.72-6.74,8.32-9.52c3.6-2.78,7.71-4.92,12.33-6.43
		c4.62-1.51,9.5-2.26,14.64-2.26h45.16c4.42,0,8.6,0.65,12.56,1.96c3.95,1.31,7.4,3.12,10.33,5.42c2.93,2.3,5.24,4.98,6.94,8.04
		c1.7,3.06,2.54,6.29,2.54,9.7c0,3.41-0.85,6.65-2.54,9.7c-1.7,3.06-4.01,5.71-6.94,7.97c-2.93,2.26-6.37,4.05-10.33,5.36
		c-3.96,1.31-8.14,1.96-12.56,1.96H662.59z M660.01,661.54h63.51c3.58,0,6.6-0.97,9.05-2.92c2.45-1.94,3.68-4.26,3.68-6.96
		c0-2.78-1.23-5.14-3.68-7.08c-2.45-1.94-5.47-2.92-9.05-2.92h-44.94c-2.56,0-4.96,0.38-7.21,1.13c-2.25,0.76-4.22,1.79-5.91,3.09
		c-1.69,1.31-3.02,2.84-3.99,4.58c-0.97,1.75-1.46,3.61-1.46,5.59V661.54z"/>
</g>
<g class="st1">
	<g>
		<path class="st2" d="M528.35,494.12c6.68,17.2,0,37.62-15.27,45.15c-3.82,2.15-8.11,3.22-12.41,3.22
			c-11.45,0-22.43-7.52-27.67-19.88L367.08,259.8c-8.11-19.88-26.24-32.25-45.33-32.25c-19.56,0-37.22,12.36-45.33,32.25
			l-106.4,262.81c-6.68,17.2-24.81,24.72-40.08,16.66c-15.27-7.52-21.95-27.95-14.79-45.15l105.92-262.27
			c18.13-44.07,57.26-73.09,100.67-73.09c42.94,0,82.54,29.02,100.2,73.09L528.35,494.12z M376.14,418.88
			c0,33.86-24.33,61.27-54.39,61.27s-54.39-27.41-54.39-61.27c0-33.86,24.33-61.27,54.39-61.27S376.14,385.02,376.14,418.88z"/>
	</g>
	<path class="st2" d="M734.3,478.83l-93.46-68.4l27.72-1.25c25.99-3.41,42.34-15.66,53.49-27.81c21.75-23.7,32.5-56,32.5-90.34
		c0-34.34-11.44-66.04-32.5-90.34c-21.06-23.77-48.52-41.93-78.28-41.93H474.47c-16.02,0-28.84,15.61-28.84,34.1
		c0,18.49,12.82,33.28,28.84,33.28h169.29c28.84,0,52.64,31.6,52.64,64.88c0,33.28-23.8,60.23-52.64,60.23l-95.65-0.95
		c-16.02,0-28.84,15.32-28.84,33.81c0,10.75,4.34,20.25,11.12,26.32l169.25,122.15c18.51,13.24,39.88,14.48,51.6-2.95
		C761.19,514.83,755.3,493.05,734.3,478.83z"/>
</g>
</svg>
